<svg id="svg" xmlns="http://www.w3.org/2000/svg" xmlns:xlink="http://www.w3.org/1999/xlink" width="400" height="400" viewBox="0, 0, 400,400" version="1.1"><g id="svgg"><path id="path0" d="M125.055 2.600 C 124.929 2.930,124.977 3.200,125.164 3.200 C 125.350 3.200,125.726 2.930,126.000 2.600 C 126.405 2.112,126.385 2.000,125.892 2.000 C 125.558 2.000,125.182 2.270,125.055 2.600 M274.000 2.600 C 274.274 2.930,274.650 3.200,274.836 3.200 C 275.023 3.200,275.071 2.930,274.945 2.600 C 274.818 2.270,274.442 2.000,274.108 2.000 C 273.615 2.000,273.595 2.112,274.000 2.600 M122.826 4.569 C 122.439 5.035,122.503 5.098,123.183 4.920 C 124.184 4.659,124.677 4.000,123.873 4.000 C 123.557 4.000,123.086 4.256,122.826 4.569 M275.770 4.352 C 275.890 4.545,276.361 4.801,276.817 4.920 C 277.497 5.098,277.561 5.035,277.174 4.569 C 276.668 3.959,275.407 3.764,275.770 4.352 M115.055 6.600 C 114.929 6.930,114.977 7.200,115.164 7.200 C 115.350 7.200,115.726 6.930,116.000 6.600 C 116.405 6.112,116.385 6.000,115.892 6.000 C 115.558 6.000,115.182 6.270,115.055 6.600 M284.000 6.600 C 284.274 6.930,284.650 7.200,284.836 7.200 C 285.023 7.200,285.071 6.930,284.945 6.600 C 284.818 6.270,284.442 6.000,284.108 6.000 C 283.615 6.000,283.595 6.112,284.000 6.600 M104.826 12.569 C 104.439 13.035,104.503 13.098,105.183 12.920 C 106.184 12.659,106.677 12.000,105.873 12.000 C 105.557 12.000,105.086 12.256,104.826 12.569 M293.770 12.352 C 293.890 12.545,294.361 12.801,294.817 12.920 C 295.497 13.098,295.561 13.035,295.174 12.569 C 294.668 11.959,293.407 11.764,293.770 12.352 M95.055 16.600 C 94.929 16.930,94.977 17.200,95.164 17.200 C 95.350 17.200,95.726 16.930,96.000 16.600 C 96.405 16.112,96.385 16.000,95.892 16.000 C 95.558 16.000,95.182 16.270,95.055 16.600 M304.000 16.600 C 304.274 16.930,304.650 17.200,304.836 17.200 C 305.023 17.200,305.071 16.930,304.945 16.600 C 304.818 16.270,304.442 16.000,304.108 16.000 C 303.615 16.000,303.595 16.112,304.000 16.600 M202.102 17.563 C 201.388 17.747,199.318 18.639,197.502 19.544 C 193.279 21.650,191.297 22.000,183.607 22.000 C 137.774 22.000,103.707 38.988,88.952 69.200 C 87.287 72.610,84.330 78.640,82.381 82.600 C 75.930 95.710,73.661 105.300,74.125 117.501 C 75.066 142.220,75.399 146.065,77.406 155.400 C 77.927 157.820,78.986 162.950,79.759 166.800 C 85.198 193.858,87.860 203.297,92.734 212.800 C 98.387 223.823,100.302 224.072,101.616 213.955 C 102.027 210.790,102.834 205.950,103.410 203.200 C 104.112 199.845,104.567 196.024,104.794 191.588 C 105.172 184.183,105.232 183.954,109.155 175.047 C 112.964 166.399,113.597 165.649,117.800 164.822 C 119.120 164.562,121.821 163.820,123.803 163.174 C 131.537 160.651,141.714 160.068,154.048 161.440 C 167.984 162.990,174.348 161.061,176.785 154.548 C 179.992 145.977,174.398 142.348,155.800 140.935 C 150.570 140.537,134.058 141.851,130.294 142.963 C 125.260 144.452,124.400 144.390,124.400 142.544 C 124.400 136.002,134.638 129.076,145.886 128.010 C 155.285 127.118,156.705 127.486,157.091 130.909 C 157.371 133.395,157.891 133.764,160.707 133.474 C 169.656 132.554,174.297 131.945,176.293 131.428 C 182.767 129.751,184.555 130.153,186.048 133.622 C 187.095 136.057,188.331 136.800,191.336 136.800 C 198.727 136.800,209.615 132.953,221.171 126.258 C 224.159 124.527,227.243 123.125,230.075 122.211 C 236.610 120.102,239.376 118.406,247.000 111.837 C 253.975 105.827,254.692 106.015,259.200 115.041 C 262.945 122.539,265.653 126.339,272.000 132.997 C 274.750 135.883,277.810 139.548,278.800 141.142 C 279.790 142.736,282.286 146.596,284.346 149.720 C 297.840 170.178,299.957 185.312,292.968 211.354 C 290.651 219.990,290.402 221.372,290.862 223.041 C 291.916 226.857,298.660 225.894,301.979 221.454 C 309.016 212.041,317.452 181.454,321.017 152.424 C 321.391 149.380,322.191 145.389,322.861 143.224 C 326.161 132.563,324.598 117.408,318.350 99.496 C 317.027 95.703,315.226 89.733,314.347 86.229 C 311.041 73.048,306.585 66.181,295.726 57.528 C 293.686 55.902,290.910 53.176,289.482 51.397 C 283.197 43.565,279.339 41.891,267.963 42.062 C 260.477 42.174,259.824 41.924,255.734 37.381 C 252.169 33.421,249.169 31.187,245.322 29.628 C 243.605 28.932,239.320 26.937,235.800 25.195 C 223.367 19.040,208.990 15.783,202.102 17.563 M85.055 22.600 C 84.929 22.930,84.977 23.200,85.164 23.200 C 85.350 23.200,85.726 22.930,86.000 22.600 C 86.405 22.112,86.385 22.000,85.892 22.000 C 85.558 22.000,85.182 22.270,85.055 22.600 M314.000 22.600 C 314.274 22.930,314.650 23.200,314.836 23.200 C 315.023 23.200,315.071 22.930,314.945 22.600 C 314.818 22.270,314.442 22.000,314.108 22.000 C 313.615 22.000,313.595 22.112,314.000 22.600 M82.000 24.600 C 81.722 24.935,81.679 25.200,81.902 25.200 C 82.122 25.200,82.526 24.930,82.800 24.600 C 83.078 24.265,83.121 24.000,82.898 24.000 C 82.678 24.000,82.274 24.270,82.000 24.600 M317.200 24.600 C 317.474 24.930,317.878 25.200,318.098 25.200 C 318.321 25.200,318.278 24.935,318.000 24.600 C 317.726 24.270,317.322 24.000,317.102 24.000 C 316.879 24.000,316.922 24.265,317.200 24.600 M62.826 40.569 C 62.439 41.035,62.503 41.098,63.183 40.920 C 64.184 40.659,64.677 40.000,63.873 40.000 C 63.557 40.000,63.086 40.256,62.826 40.569 M335.770 40.352 C 335.890 40.545,336.361 40.801,336.817 40.920 C 337.497 41.098,337.561 41.035,337.174 40.569 C 336.668 39.959,335.407 39.764,335.770 40.352 M40.495 62.865 C 40.223 63.137,40.000 63.633,40.000 63.966 C 40.000 64.490,40.087 64.484,40.646 63.925 C 41.002 63.569,41.225 63.074,41.141 62.824 C 41.032 62.496,40.852 62.508,40.495 62.865 M358.800 62.902 C 358.800 63.232,359.070 63.726,359.400 64.000 C 359.888 64.405,360.000 64.386,360.000 63.898 C 360.000 63.568,359.730 63.074,359.400 62.800 C 358.912 62.395,358.800 62.414,358.800 62.902 M32.500 71.088 C 32.225 71.186,32.000 71.560,32.000 71.919 C 32.000 72.513,32.061 72.511,32.676 71.895 C 33.399 71.172,33.317 70.796,32.500 71.088 M366.800 71.164 C 366.800 71.350,367.070 71.726,367.400 72.000 C 367.888 72.405,368.000 72.385,368.000 71.892 C 368.000 71.558,367.730 71.182,367.400 71.055 C 367.070 70.929,366.800 70.977,366.800 71.164 M32.480 72.880 C 31.929 73.431,31.822 74.557,32.352 74.230 C 32.654 74.043,33.274 72.400,33.043 72.400 C 32.997 72.400,32.744 72.616,32.480 72.880 M367.080 73.183 C 367.341 74.184,368.000 74.677,368.000 73.873 C 368.000 73.557,367.744 73.086,367.431 72.826 C 366.965 72.439,366.902 72.503,367.080 73.183 M16.500 95.088 C 16.225 95.186,16.000 95.560,16.000 95.919 C 16.000 96.513,16.061 96.511,16.676 95.895 C 17.399 95.172,17.317 94.796,16.500 95.088 M382.800 95.164 C 382.800 95.350,383.070 95.726,383.400 96.000 C 383.888 96.405,384.000 96.385,384.000 95.892 C 384.000 95.558,383.730 95.182,383.400 95.055 C 383.070 94.929,382.800 94.977,382.800 95.164 M8.500 111.088 C 8.225 111.186,8.000 111.560,8.000 111.919 C 8.000 112.513,8.061 112.511,8.676 111.895 C 9.399 111.172,9.317 110.796,8.500 111.088 M390.800 111.164 C 390.800 111.350,391.070 111.726,391.400 112.000 C 391.888 112.405,392.000 112.385,392.000 111.892 C 392.000 111.558,391.730 111.182,391.400 111.055 C 391.070 110.929,390.800 110.977,390.800 111.164 M7.400 116.000 C 7.250 116.473,7.217 116.950,7.327 117.060 C 7.437 117.170,7.650 116.873,7.800 116.400 C 7.950 115.927,7.983 115.450,7.873 115.340 C 7.763 115.230,7.550 115.527,7.400 116.000 M392.012 115.600 C 392.012 115.930,392.187 116.470,392.400 116.800 C 392.745 117.333,392.788 117.333,392.788 116.800 C 392.788 116.470,392.613 115.930,392.400 115.600 C 392.055 115.067,392.012 115.067,392.012 115.600 M4.480 122.880 C 3.929 123.431,3.822 124.557,4.352 124.230 C 4.654 124.043,5.274 122.400,5.043 122.400 C 4.997 122.400,4.744 122.616,4.480 122.880 M395.080 123.183 C 395.341 124.184,396.000 124.677,396.000 123.873 C 396.000 123.557,395.744 123.086,395.431 122.826 C 394.965 122.439,394.902 122.503,395.080 123.183 M2.500 125.088 C 2.225 125.186,2.000 125.560,2.000 125.919 C 2.000 126.513,2.061 126.511,2.676 125.895 C 3.399 125.172,3.317 124.796,2.500 125.088 M396.800 125.164 C 396.800 125.350,397.070 125.726,397.400 126.000 C 397.888 126.405,398.000 126.385,398.000 125.892 C 398.000 125.558,397.730 125.182,397.400 125.055 C 397.070 124.929,396.800 124.977,396.800 125.164 M245.600 141.641 C 224.884 142.284,220.255 144.818,222.937 154.044 C 225.093 161.460,230.727 162.930,249.800 161.051 C 260.600 159.988,266.687 160.444,275.345 162.967 C 282.187 164.961,284.352 162.536,281.430 156.152 C 275.657 143.542,269.155 140.909,245.600 141.641 M248.600 176.993 C 240.608 178.481,236.052 181.340,235.712 185.081 C 234.917 193.822,240.879 197.734,253.039 196.451 C 260.530 195.661,263.200 194.027,263.200 190.233 C 263.200 188.199,263.831 185.362,264.816 182.971 C 266.704 178.384,258.123 175.221,248.600 176.993 M140.482 177.383 C 135.150 178.598,134.064 180.065,135.435 184.201 C 136.008 185.931,136.370 187.997,136.381 189.611 C 136.393 191.307,136.619 192.535,137.026 193.116 C 140.348 197.858,158.675 197.902,162.101 193.176 C 163.147 191.732,164.515 186.137,164.214 184.533 C 163.175 178.998,150.351 175.135,140.482 177.383 M2.000 274.108 C 2.000 274.442,2.270 274.818,2.600 274.945 C 2.930 275.071,3.200 275.023,3.200 274.836 C 3.200 274.650,2.930 274.274,2.600 274.000 C 2.112 273.595,2.000 273.615,2.000 274.108 M397.228 274.166 C 396.596 274.928,396.785 275.304,397.560 274.825 C 397.856 274.642,398.024 274.272,397.934 274.002 C 397.818 273.654,397.614 273.701,397.228 274.166 M4.000 276.127 C 4.000 276.443,4.256 276.914,4.569 277.174 C 5.035 277.561,5.098 277.497,4.920 276.817 C 4.659 275.816,4.000 275.323,4.000 276.127 M395.385 276.200 C 395.215 276.640,394.989 277.180,394.882 277.400 C 394.775 277.620,395.004 277.503,395.390 277.139 C 395.777 276.776,396.003 276.236,395.893 275.939 C 395.752 275.559,395.602 275.636,395.385 276.200 M215.600 278.086 C 207.930 279.206,194.121 279.276,185.392 278.239 C 174.834 276.984,172.673 278.482,177.516 283.698 C 189.124 296.200,218.434 295.309,227.124 282.190 C 230.386 277.265,227.720 276.316,215.600 278.086 M7.212 283.200 C 7.212 283.530,7.387 284.070,7.600 284.400 C 7.945 284.933,7.988 284.933,7.988 284.400 C 7.988 284.070,7.813 283.530,7.600 283.200 C 7.255 282.667,7.212 282.667,7.212 283.200 M392.200 283.600 C 392.050 284.073,392.017 284.550,392.127 284.660 C 392.237 284.770,392.450 284.473,392.600 284.000 C 392.750 283.527,392.783 283.050,392.673 282.940 C 392.563 282.830,392.350 283.127,392.200 283.600 M8.000 288.108 C 8.000 288.442,8.270 288.818,8.600 288.945 C 8.930 289.071,9.200 289.023,9.200 288.836 C 9.200 288.650,8.930 288.274,8.600 288.000 C 8.112 287.595,8.000 287.615,8.000 288.108 M391.228 288.166 C 390.596 288.928,390.785 289.304,391.560 288.825 C 391.856 288.642,392.024 288.272,391.934 288.002 C 391.818 287.654,391.614 287.701,391.228 288.166 M262.600 300.087 C 259.683 301.117,256.310 304.426,255.222 307.326 C 254.990 307.945,254.795 311.095,254.789 314.326 C 254.783 317.557,254.602 321.910,254.385 324.000 C 254.169 326.090,253.825 333.110,253.620 339.600 C 253.124 355.298,253.197 355.038,246.645 364.600 C 235.720 380.545,234.498 381.752,214.226 396.600 C 212.123 398.140,210.402 399.535,210.401 399.700 C 210.398 400.351,268.695 400.052,268.945 399.400 C 269.089 399.023,269.701 398.800,270.587 398.800 C 271.364 398.800,272.000 398.620,272.000 398.400 C 272.000 398.180,272.611 398.000,273.357 398.000 C 274.195 398.000,274.803 397.770,274.945 397.400 C 275.071 397.070,275.530 396.800,275.964 396.800 C 276.398 396.800,276.864 396.620,277.000 396.400 C 277.136 396.180,277.755 396.000,278.375 396.000 C 278.995 396.000,279.726 395.730,280.000 395.400 C 280.274 395.070,280.825 394.800,281.225 394.800 C 281.625 394.800,282.064 394.620,282.200 394.400 C 282.336 394.180,282.957 394.000,283.581 394.000 C 284.219 394.000,284.815 393.738,284.945 393.400 C 285.071 393.070,285.530 392.800,285.964 392.800 C 286.398 392.800,286.864 392.620,287.000 392.400 C 287.136 392.180,287.577 392.000,287.981 392.000 C 288.384 392.000,288.818 391.730,288.945 391.400 C 289.071 391.070,289.453 390.800,289.793 390.800 C 290.133 390.800,290.723 390.633,291.105 390.429 C 291.487 390.225,292.070 389.953,292.400 389.825 C 292.730 389.696,293.540 389.246,294.200 388.825 C 294.860 388.403,295.696 388.045,296.057 388.029 C 296.419 388.013,296.818 387.730,296.945 387.400 C 297.071 387.070,297.530 386.800,297.964 386.800 C 298.398 386.800,298.864 386.620,299.000 386.400 C 299.136 386.180,299.577 386.000,299.981 386.000 C 300.384 386.000,300.818 385.730,300.945 385.400 C 301.071 385.070,301.530 384.800,301.964 384.800 C 302.398 384.800,302.864 384.620,303.000 384.400 C 303.136 384.180,303.497 384.000,303.803 384.000 C 304.109 384.000,304.844 383.550,305.438 383.000 C 306.031 382.450,306.738 382.000,307.009 382.000 C 307.280 382.000,307.726 381.730,308.000 381.400 C 308.274 381.070,308.753 380.800,309.066 380.800 C 309.378 380.800,310.029 380.432,310.511 379.982 C 311.425 379.131,313.461 378.000,314.081 378.000 C 314.277 378.000,314.855 377.550,315.365 377.000 C 315.875 376.450,316.550 376.000,316.865 376.000 C 317.180 376.000,318.141 375.280,319.000 374.400 C 319.859 373.520,320.804 372.800,321.099 372.800 C 321.394 372.800,322.120 372.350,322.713 371.800 C 323.307 371.250,323.983 370.800,324.217 370.800 C 324.452 370.800,325.254 370.170,326.000 369.400 C 326.746 368.630,327.578 368.000,327.847 368.000 C 328.117 368.000,329.297 367.101,330.469 366.003 C 331.641 364.905,332.788 364.005,333.019 364.003 C 333.249 364.001,334.141 363.280,335.000 362.400 C 336.157 361.216,336.382 360.800,335.869 360.800 C 335.487 360.800,335.071 361.070,334.945 361.400 C 334.818 361.730,334.432 362.000,334.087 362.000 C 333.602 362.000,333.672 361.775,334.400 361.000 C 334.917 360.450,335.122 360.000,334.856 360.000 C 334.487 360.000,334.480 359.799,334.826 359.152 C 335.076 358.685,335.123 358.400,334.932 358.519 C 334.271 358.927,329.320 353.723,328.701 351.969 C 327.297 347.993,318.220 338.783,311.748 334.768 C 305.106 330.646,304.477 329.906,301.205 322.363 C 296.013 310.393,289.309 305.059,276.595 302.782 C 274.009 302.319,270.465 301.414,268.719 300.770 C 265.322 299.518,264.479 299.424,262.600 300.087 M126.400 301.777 C 109.069 304.855,96.832 315.398,92.186 331.253 C 90.071 338.474,89.612 339.092,83.000 343.637 C 77.568 347.371,73.653 351.176,72.058 354.271 C 71.182 355.969,69.775 357.600,69.184 357.600 C 68.973 357.600,68.800 357.870,68.800 358.200 C 68.800 358.530,68.620 358.800,68.400 358.800 C 68.180 358.800,68.045 359.017,68.100 359.282 C 68.222 359.869,67.263 359.981,66.270 359.496 C 65.626 359.182,65.592 359.238,65.984 359.970 C 66.320 360.597,66.310 360.800,65.944 360.800 C 65.678 360.800,65.883 361.250,66.400 361.800 C 67.058 362.500,67.167 362.800,66.765 362.800 C 66.449 362.800,65.852 362.350,65.439 361.800 C 65.026 361.250,64.407 360.800,64.063 360.800 C 63.652 360.800,63.974 361.349,65.000 362.400 C 65.859 363.280,66.751 364.001,66.981 364.003 C 67.212 364.005,68.359 364.905,69.531 366.003 C 70.703 367.101,71.883 368.000,72.153 368.000 C 72.422 368.000,73.254 368.630,74.000 369.400 C 74.746 370.170,75.548 370.800,75.783 370.800 C 76.017 370.800,76.693 371.250,77.287 371.800 C 77.880 372.350,78.606 372.800,78.901 372.800 C 79.196 372.800,80.141 373.520,81.000 374.400 C 81.859 375.280,82.820 376.000,83.135 376.000 C 83.450 376.000,84.125 376.450,84.635 377.000 C 85.145 377.550,85.723 378.000,85.919 378.000 C 86.539 378.000,88.575 379.131,89.489 379.982 C 89.971 380.432,90.622 380.800,90.934 380.800 C 91.247 380.800,91.726 381.070,92.000 381.400 C 92.274 381.730,92.720 382.000,92.991 382.000 C 93.262 382.000,93.969 382.450,94.562 383.000 C 95.156 383.550,95.891 384.000,96.197 384.000 C 96.503 384.000,96.864 384.180,97.000 384.400 C 97.136 384.620,97.602 384.800,98.036 384.800 C 98.470 384.800,98.929 385.070,99.055 385.400 C 99.182 385.730,99.616 386.000,100.019 386.000 C 100.423 386.000,100.864 386.180,101.000 386.400 C 101.136 386.620,101.602 386.800,102.036 386.800 C 102.470 386.800,102.929 387.070,103.055 387.400 C 103.182 387.730,103.581 388.013,103.943 388.029 C 104.304 388.045,105.140 388.403,105.800 388.825 C 106.460 389.246,107.270 389.696,107.600 389.825 C 107.930 389.953,108.513 390.225,108.895 390.429 C 109.277 390.633,109.867 390.800,110.207 390.800 C 110.547 390.800,110.929 391.070,111.055 391.400 C 111.182 391.730,111.616 392.000,112.019 392.000 C 112.423 392.000,112.864 392.180,113.000 392.400 C 113.136 392.620,113.602 392.800,114.036 392.800 C 114.470 392.800,114.929 393.070,115.055 393.400 C 115.185 393.738,115.781 394.000,116.419 394.000 C 117.043 394.000,117.664 394.180,117.800 394.400 C 117.936 394.620,118.375 394.800,118.775 394.800 C 119.175 394.800,119.726 395.070,120.000 395.400 C 120.274 395.730,121.005 396.000,121.625 396.000 C 122.245 396.000,122.864 396.180,123.000 396.400 C 123.136 396.620,123.602 396.800,124.036 396.800 C 124.470 396.800,124.929 397.070,125.055 397.400 C 125.197 397.770,125.805 398.000,126.643 398.000 C 127.389 398.000,128.000 398.180,128.000 398.400 C 128.000 398.620,128.636 398.800,129.413 398.800 C 130.299 398.800,130.911 399.023,131.055 399.400 C 131.206 399.793,131.830 400.000,132.866 400.000 C 133.818 400.000,134.349 399.841,134.200 399.600 C 134.064 399.380,134.133 399.200,134.353 399.200 C 134.573 399.200,134.864 399.380,135.000 399.600 C 135.161 399.861,145.404 400.000,164.424 400.000 C 183.608 400.000,193.600 399.863,193.600 399.600 C 193.600 399.380,193.465 399.199,193.300 399.198 C 193.135 399.197,192.460 398.702,191.800 398.098 C 187.681 394.329,183.412 391.188,172.600 383.975 C 162.909 377.509,159.585 374.595,155.866 369.302 C 154.591 367.489,152.000 364.069,150.109 361.702 C 144.284 354.415,143.469 351.505,144.590 342.000 C 145.133 337.392,145.246 333.650,145.137 323.790 L 145.000 311.380 143.683 308.707 C 140.605 302.458,135.067 300.237,126.400 301.777 M16.000 304.108 C 16.000 304.442,16.270 304.818,16.600 304.945 C 16.930 305.071,17.200 305.023,17.200 304.836 C 17.200 304.650,16.930 304.274,16.600 304.000 C 16.112 303.595,16.000 303.615,16.000 304.108 M383.228 304.166 C 382.596 304.928,382.785 305.304,383.560 304.825 C 383.856 304.642,384.024 304.272,383.934 304.002 C 383.818 303.654,383.614 303.701,383.228 304.166 M32.000 326.127 C 32.000 326.443,32.256 326.914,32.569 327.174 C 33.035 327.561,33.098 327.497,32.920 326.817 C 32.659 325.816,32.000 325.323,32.000 326.127 M367.385 326.200 C 367.215 326.640,366.989 327.180,366.882 327.400 C 366.775 327.620,367.004 327.503,367.390 327.139 C 367.777 326.776,368.003 326.236,367.893 325.939 C 367.752 325.559,367.602 325.636,367.385 326.200 M32.000 328.108 C 32.000 328.442,32.270 328.818,32.600 328.945 C 32.930 329.071,33.200 329.023,33.200 328.836 C 33.200 328.650,32.930 328.274,32.600 328.000 C 32.112 327.595,32.000 327.615,32.000 328.108 M367.228 328.166 C 366.596 328.928,366.785 329.304,367.560 328.825 C 367.856 328.642,368.024 328.272,367.934 328.002 C 367.818 327.654,367.614 327.701,367.228 328.166 M40.000 336.102 C 40.000 336.432,40.270 336.926,40.600 337.200 C 41.088 337.605,41.200 337.586,41.200 337.098 C 41.200 336.768,40.930 336.274,40.600 336.000 C 40.112 335.595,40.000 335.614,40.000 336.102 M359.295 336.065 C 359.023 336.337,358.800 336.833,358.800 337.166 C 358.800 337.690,358.887 337.684,359.446 337.125 C 359.802 336.769,360.025 336.274,359.941 336.024 C 359.832 335.696,359.652 335.708,359.295 336.065 M62.400 359.000 C 62.917 359.550,63.623 359.994,63.970 359.987 C 64.416 359.978,64.273 359.687,63.478 358.987 C 62.013 357.699,61.187 357.709,62.400 359.000 M336.600 358.550 C 336.160 358.809,335.755 359.242,335.700 359.511 C 335.530 360.342,336.612 360.051,337.600 359.000 C 338.606 357.929,338.066 357.686,336.600 358.550 M82.000 373.400 C 82.405 373.888,82.385 374.000,81.892 374.000 C 81.558 374.000,81.182 373.730,81.055 373.400 C 80.929 373.070,80.977 372.800,81.164 372.800 C 81.350 372.800,81.726 373.070,82.000 373.400 M318.945 373.400 C 318.818 373.730,318.442 374.000,318.108 374.000 C 317.615 374.000,317.595 373.888,318.000 373.400 C 318.274 373.070,318.650 372.800,318.836 372.800 C 319.023 372.800,319.071 373.070,318.945 373.400 M302.945 383.400 C 302.818 383.730,302.442 384.000,302.108 384.000 C 301.615 384.000,301.595 383.888,302.000 383.400 C 302.274 383.070,302.650 382.800,302.836 382.800 C 303.023 382.800,303.071 383.070,302.945 383.400 " stroke="none" fill="#2c323a" fill-rule="evenodd"></path><path id="path1" d="M131.055 0.600 C 130.911 0.977,130.299 1.200,129.413 1.200 C 128.636 1.200,128.000 1.380,128.000 1.600 C 128.000 1.820,127.662 2.000,127.249 2.000 C 126.836 2.000,126.274 2.270,126.000 2.600 C 125.726 2.930,124.995 3.200,124.375 3.200 C 123.755 3.200,123.136 3.380,123.000 3.600 C 122.864 3.820,122.245 4.000,121.625 4.000 C 121.005 4.000,120.274 4.270,120.000 4.600 C 119.726 4.930,119.164 5.200,118.751 5.200 C 118.338 5.200,118.000 5.380,118.000 5.600 C 118.000 5.820,117.662 6.000,117.249 6.000 C 116.836 6.000,116.274 6.270,116.000 6.600 C 115.726 6.930,114.995 7.200,114.375 7.200 C 113.755 7.200,113.136 7.380,113.000 7.600 C 112.864 7.820,112.423 8.000,112.019 8.000 C 111.616 8.000,111.182 8.270,111.055 8.600 C 110.929 8.930,110.470 9.200,110.036 9.200 C 109.602 9.200,109.136 9.380,109.000 9.600 C 108.864 9.820,108.423 10.000,108.019 10.000 C 107.616 10.000,107.182 10.270,107.055 10.600 C 106.929 10.930,106.470 11.200,106.036 11.200 C 105.602 11.200,105.136 11.380,105.000 11.600 C 104.864 11.820,104.423 12.000,104.019 12.000 C 103.616 12.000,103.182 12.270,103.055 12.600 C 102.929 12.930,102.470 13.200,102.036 13.200 C 101.602 13.200,101.136 13.380,101.000 13.600 C 100.864 13.820,100.423 14.000,100.019 14.000 C 99.616 14.000,99.182 14.270,99.055 14.600 C 98.929 14.930,98.491 15.200,98.082 15.200 C 97.674 15.200,96.917 15.650,96.400 16.200 C 95.883 16.750,95.132 17.200,94.730 17.200 C 94.329 17.200,94.000 17.380,94.000 17.600 C 94.000 17.820,93.662 18.000,93.249 18.000 C 92.836 18.000,92.274 18.270,92.000 18.600 C 91.726 18.930,91.207 19.200,90.846 19.200 C 90.485 19.200,89.852 19.650,89.439 20.200 C 89.026 20.750,88.385 21.200,88.014 21.200 C 87.643 21.200,86.917 21.650,86.400 22.200 C 85.883 22.750,85.214 23.200,84.913 23.200 C 84.612 23.200,83.880 23.650,83.287 24.200 C 82.693 24.750,82.013 25.200,81.774 25.200 C 81.535 25.200,80.917 25.650,80.400 26.200 C 79.883 26.750,79.175 27.200,78.825 27.200 C 78.476 27.200,77.852 27.650,77.439 28.200 C 77.026 28.750,76.388 29.200,76.022 29.200 C 75.656 29.200,74.746 29.830,74.000 30.600 C 73.254 31.370,72.420 32.000,72.148 32.000 C 71.876 32.000,70.729 32.900,69.600 34.000 C 68.471 35.100,67.328 36.000,67.062 36.000 C 66.795 36.000,65.417 37.170,64.000 38.600 C 62.583 40.030,61.200 41.200,60.926 41.200 C 60.281 41.200,42.000 59.485,42.000 60.130 C 42.000 60.399,40.650 61.961,39.000 63.600 C 37.350 65.239,36.000 66.794,36.000 67.056 C 36.000 67.317,35.370 68.180,34.600 68.973 C 33.830 69.766,33.200 70.643,33.200 70.922 C 33.200 71.202,32.300 72.317,31.200 73.400 C 30.100 74.483,29.200 75.666,29.200 76.029 C 29.200 76.391,28.750 77.026,28.200 77.439 C 27.650 77.852,27.200 78.476,27.200 78.825 C 27.200 79.175,26.750 79.883,26.200 80.400 C 25.650 80.917,25.200 81.535,25.200 81.774 C 25.200 82.013,24.750 82.693,24.200 83.287 C 23.650 83.880,23.200 84.612,23.200 84.913 C 23.200 85.214,22.750 85.883,22.200 86.400 C 21.650 86.917,21.200 87.674,21.200 88.082 C 21.200 88.491,20.930 88.929,20.600 89.055 C 20.270 89.182,20.000 89.595,20.000 89.973 C 20.000 90.351,19.550 91.083,19.000 91.600 C 18.450 92.117,18.000 92.868,18.000 93.270 C 18.000 93.671,17.820 94.000,17.600 94.000 C 17.380 94.000,17.200 94.329,17.200 94.730 C 17.200 95.132,16.750 95.883,16.200 96.400 C 15.650 96.917,15.200 97.674,15.200 98.082 C 15.200 98.491,14.930 98.929,14.600 99.055 C 14.270 99.182,14.000 99.616,14.000 100.019 C 14.000 100.423,13.820 100.864,13.600 101.000 C 13.380 101.136,13.200 101.602,13.200 102.036 C 13.200 102.470,12.930 102.929,12.600 103.055 C 12.270 103.182,12.000 103.616,12.000 104.019 C 12.000 104.423,11.820 104.864,11.600 105.000 C 11.380 105.136,11.200 105.602,11.200 106.036 C 11.200 106.470,10.930 106.929,10.600 107.055 C 10.270 107.182,10.000 107.616,10.000 108.019 C 10.000 108.423,9.820 108.864,9.600 109.000 C 9.380 109.136,9.200 109.766,9.200 110.400 C 9.200 111.034,9.031 111.657,8.825 111.784 C 8.351 112.078,7.200 114.363,7.200 115.012 C 7.200 115.282,6.930 115.726,6.600 116.000 C 6.270 116.274,6.000 116.836,6.000 117.249 C 6.000 117.662,5.820 118.000,5.600 118.000 C 5.380 118.000,5.200 118.338,5.200 118.751 C 5.200 119.164,4.930 119.726,4.600 120.000 C 4.270 120.274,4.000 121.005,4.000 121.625 C 4.000 122.245,3.820 122.864,3.600 123.000 C 3.380 123.136,3.200 123.755,3.200 124.375 C 3.200 124.995,2.930 125.726,2.600 126.000 C 2.270 126.274,2.000 126.836,2.000 127.249 C 2.000 127.662,1.820 128.000,1.600 128.000 C 1.380 128.000,1.200 128.636,1.200 129.413 C 1.200 130.299,0.977 130.911,0.600 131.055 C 0.070 131.259,0.000 139.290,0.000 200.000 C 0.000 260.710,0.070 268.741,0.600 268.945 C 0.977 269.089,1.200 269.701,1.200 270.587 C 1.200 271.364,1.380 272.000,1.600 272.000 C 1.820 272.000,2.000 272.338,2.000 272.751 C 2.000 273.164,2.270 273.726,2.600 274.000 C 2.930 274.274,3.200 275.005,3.200 275.625 C 3.200 276.245,3.380 276.864,3.600 277.000 C 3.820 277.136,4.000 277.755,4.000 278.375 C 4.000 278.995,4.270 279.726,4.600 280.000 C 4.930 280.274,5.200 280.836,5.200 281.249 C 5.200 281.662,5.380 282.000,5.600 282.000 C 5.820 282.000,6.000 282.338,6.000 282.751 C 6.000 283.164,6.270 283.726,6.600 284.000 C 6.930 284.274,7.200 284.718,7.200 284.988 C 7.200 285.637,8.351 287.922,8.825 288.216 C 9.031 288.343,9.200 288.966,9.200 289.600 C 9.200 290.234,9.380 290.864,9.600 291.000 C 9.820 291.136,10.000 291.577,10.000 291.981 C 10.000 292.384,10.270 292.818,10.600 292.945 C 10.930 293.071,11.200 293.530,11.200 293.964 C 11.200 294.398,11.380 294.864,11.600 295.000 C 11.820 295.136,12.000 295.577,12.000 295.981 C 12.000 296.384,12.270 296.818,12.600 296.945 C 12.930 297.071,13.200 297.530,13.200 297.964 C 13.200 298.398,13.380 298.864,13.600 299.000 C 13.820 299.136,14.000 299.577,14.000 299.981 C 14.000 300.384,14.270 300.818,14.600 300.945 C 14.930 301.071,15.200 301.509,15.200 301.918 C 15.200 302.326,15.650 303.083,16.200 303.600 C 16.750 304.117,17.200 304.868,17.200 305.270 C 17.200 305.671,17.380 306.000,17.600 306.000 C 17.820 306.000,18.000 306.329,18.000 306.730 C 18.000 307.132,18.450 307.883,19.000 308.400 C 19.550 308.917,20.000 309.649,20.000 310.027 C 20.000 310.405,20.270 310.818,20.600 310.945 C 20.930 311.071,21.200 311.509,21.200 311.918 C 21.200 312.326,21.650 313.083,22.200 313.600 C 22.750 314.117,23.200 314.786,23.200 315.087 C 23.200 315.388,23.650 316.120,24.200 316.713 C 24.750 317.307,25.200 317.987,25.200 318.226 C 25.200 318.465,25.650 319.083,26.200 319.600 C 26.750 320.117,27.200 320.825,27.200 321.175 C 27.200 321.524,27.650 322.148,28.200 322.561 C 28.750 322.974,29.200 323.609,29.200 323.971 C 29.200 324.334,30.100 325.517,31.200 326.600 C 32.300 327.683,33.200 328.798,33.200 329.078 C 33.200 329.357,33.830 330.234,34.600 331.027 C 35.370 331.820,36.000 332.683,36.000 332.944 C 36.000 333.206,37.350 334.761,39.000 336.400 C 40.650 338.039,42.000 339.601,42.000 339.870 C 42.000 340.527,60.288 358.800,60.945 358.800 C 61.229 358.800,61.883 359.250,62.400 359.800 C 62.917 360.350,63.643 360.800,64.014 360.800 C 64.385 360.800,65.026 361.250,65.439 361.800 C 65.852 362.350,66.449 362.800,66.765 362.800 C 67.167 362.800,67.058 362.500,66.400 361.800 C 65.883 361.250,65.678 360.800,65.944 360.800 C 66.310 360.800,66.320 360.597,65.984 359.970 C 65.592 359.238,65.626 359.182,66.270 359.496 C 67.263 359.981,68.222 359.869,68.100 359.282 C 68.045 359.017,68.180 358.800,68.400 358.800 C 68.620 358.800,68.800 358.530,68.800 358.200 C 68.800 357.870,68.973 357.600,69.184 357.600 C 69.775 357.600,71.182 355.969,72.058 354.271 C 73.653 351.176,77.568 347.371,83.000 343.637 C 89.612 339.092,90.071 338.474,92.186 331.253 C 96.976 314.904,109.914 304.159,127.915 301.579 C 135.716 300.461,140.740 302.732,143.683 308.707 L 145.000 311.380 145.137 323.790 C 145.246 333.650,145.133 337.392,144.590 342.000 C 143.469 351.505,144.284 354.415,150.109 361.702 C 152.000 364.069,154.591 367.489,155.866 369.302 C 159.557 374.555,162.927 377.525,172.200 383.698 C 176.820 386.774,181.500 389.940,182.600 390.734 C 185.016 392.478,192.344 398.403,193.442 399.500 C 194.550 400.607,209.853 400.169,211.117 398.994 C 211.713 398.441,213.640 396.961,215.400 395.705 C 233.018 383.136,235.935 380.232,246.645 364.600 C 253.197 355.038,253.124 355.298,253.620 339.600 C 253.825 333.110,254.169 326.090,254.385 324.000 C 254.602 321.910,254.783 317.557,254.789 314.326 C 254.803 306.799,255.592 304.742,259.593 301.805 C 262.829 299.430,264.460 299.237,268.646 300.735 C 270.601 301.434,274.251 302.372,276.758 302.819 C 289.291 305.051,296.035 310.443,301.205 322.363 C 304.477 329.906,305.106 330.646,311.748 334.768 C 318.220 338.783,327.297 347.993,328.701 351.969 C 329.320 353.723,334.271 358.927,334.932 358.519 C 335.123 358.400,335.076 358.685,334.826 359.152 C 334.480 359.799,334.487 360.000,334.856 360.000 C 335.122 360.000,334.917 360.450,334.400 361.000 C 333.672 361.775,333.602 362.000,334.087 362.000 C 334.432 362.000,334.818 361.730,334.945 361.400 C 335.071 361.070,335.505 360.800,335.909 360.800 C 336.313 360.800,337.254 360.170,338.000 359.400 C 338.746 358.630,339.584 358.000,339.860 358.000 C 340.511 358.000,358.000 340.522,358.000 339.872 C 358.000 339.601,359.350 338.039,361.000 336.400 C 362.650 334.761,364.000 333.206,364.000 332.944 C 364.000 332.683,364.630 331.820,365.400 331.027 C 366.170 330.234,366.800 329.357,366.800 329.078 C 366.800 328.798,367.700 327.683,368.800 326.600 C 369.900 325.517,370.800 324.334,370.800 323.971 C 370.800 323.609,371.250 322.974,371.800 322.561 C 372.350 322.148,372.800 321.524,372.800 321.175 C 372.800 320.825,373.250 320.117,373.800 319.600 C 374.350 319.083,374.800 318.465,374.800 318.226 C 374.800 317.987,375.250 317.307,375.800 316.713 C 376.350 316.120,376.800 315.388,376.800 315.087 C 376.800 314.786,377.250 314.117,377.800 313.600 C 378.350 313.083,378.800 312.326,378.800 311.918 C 378.800 311.509,379.070 311.071,379.400 310.945 C 379.730 310.818,380.000 310.405,380.000 310.027 C 380.000 309.649,380.450 308.917,381.000 308.400 C 381.550 307.883,382.000 307.132,382.000 306.730 C 382.000 306.329,382.180 306.000,382.400 306.000 C 382.620 306.000,382.800 305.671,382.800 305.270 C 382.800 304.868,383.250 304.117,383.800 303.600 C 384.350 303.083,384.800 302.326,384.800 301.918 C 384.800 301.509,385.070 301.071,385.400 300.945 C 385.730 300.818,386.000 300.384,386.000 299.981 C 386.000 299.577,386.180 299.136,386.400 299.000 C 386.620 298.864,386.800 298.398,386.800 297.964 C 386.800 297.530,387.070 297.071,387.400 296.945 C 387.730 296.818,388.000 296.384,388.000 295.981 C 388.000 295.577,388.180 295.136,388.400 295.000 C 388.620 294.864,388.800 294.398,388.800 293.964 C 388.800 293.530,389.070 293.071,389.400 292.945 C 389.730 292.818,390.000 292.384,390.000 291.981 C 390.000 291.577,390.180 291.136,390.400 291.000 C 390.620 290.864,390.800 290.234,390.800 289.600 C 390.800 288.966,390.969 288.343,391.175 288.216 C 391.649 287.922,392.800 285.637,392.800 284.988 C 392.800 284.718,393.070 284.274,393.400 284.000 C 393.730 283.726,394.000 283.164,394.000 282.751 C 394.000 282.338,394.180 282.000,394.400 282.000 C 394.620 282.000,394.800 281.662,394.800 281.249 C 394.800 280.836,395.070 280.274,395.400 280.000 C 395.730 279.726,396.000 278.995,396.000 278.375 C 396.000 277.755,396.180 277.136,396.400 277.000 C 396.620 276.864,396.800 276.245,396.800 275.625 C 396.800 275.005,397.070 274.274,397.400 274.000 C 397.730 273.726,398.000 273.164,398.000 272.751 C 398.000 272.338,398.180 272.000,398.400 272.000 C 398.620 272.000,398.800 271.364,398.800 270.587 C 398.800 269.701,399.023 269.089,399.400 268.945 C 400.313 268.594,400.313 131.406,399.400 131.055 C 399.023 130.911,398.800 130.299,398.800 129.413 C 398.800 128.636,398.620 128.000,398.400 128.000 C 398.180 128.000,398.000 127.662,398.000 127.249 C 398.000 126.836,397.730 126.274,397.400 126.000 C 397.070 125.726,396.800 124.995,396.800 124.375 C 396.800 123.755,396.620 123.136,396.400 123.000 C 396.180 122.864,396.000 122.245,396.000 121.625 C 396.000 121.005,395.730 120.274,395.400 120.000 C 395.070 119.726,394.800 119.164,394.800 118.751 C 394.800 118.338,394.620 118.000,394.400 118.000 C 394.180 118.000,394.000 117.662,394.000 117.249 C 394.000 116.836,393.730 116.274,393.400 116.000 C 393.070 115.726,392.800 115.282,392.800 115.012 C 392.800 114.363,391.649 112.078,391.175 111.784 C 390.969 111.657,390.800 111.034,390.800 110.400 C 390.800 109.766,390.620 109.136,390.400 109.000 C 390.180 108.864,390.000 108.423,390.000 108.019 C 390.000 107.616,389.730 107.182,389.400 107.055 C 389.070 106.929,388.800 106.470,388.800 106.036 C 388.800 105.602,388.620 105.136,388.400 105.000 C 388.180 104.864,388.000 104.423,388.000 104.019 C 388.000 103.616,387.730 103.182,387.400 103.055 C 387.070 102.929,386.800 102.470,386.800 102.036 C 386.800 101.602,386.620 101.136,386.400 101.000 C 386.180 100.864,386.000 100.423,386.000 100.019 C 386.000 99.616,385.730 99.182,385.400 99.055 C 385.070 98.929,384.800 98.491,384.800 98.082 C 384.800 97.674,384.350 96.917,383.800 96.400 C 383.250 95.883,382.800 95.132,382.800 94.730 C 382.800 94.329,382.620 94.000,382.400 94.000 C 382.180 94.000,382.000 93.671,382.000 93.270 C 382.000 92.868,381.550 92.117,381.000 91.600 C 380.450 91.083,380.000 90.351,380.000 89.973 C 380.000 89.595,379.730 89.182,379.400 89.055 C 379.070 88.929,378.800 88.491,378.800 88.082 C 378.800 87.674,378.350 86.917,377.800 86.400 C 377.250 85.883,376.800 85.214,376.800 84.913 C 376.800 84.612,376.350 83.880,375.800 83.287 C 375.250 82.693,374.800 82.013,374.800 81.774 C 374.800 81.535,374.350 80.917,373.800 80.400 C 373.250 79.883,372.800 79.175,372.800 78.825 C 372.800 78.476,372.350 77.852,371.800 77.439 C 371.250 77.026,370.800 76.391,370.800 76.029 C 370.800 75.666,369.900 74.483,368.800 73.400 C 367.700 72.317,366.800 71.202,366.800 70.922 C 366.800 70.643,366.170 69.766,365.400 68.973 C 364.630 68.180,364.000 67.317,364.000 67.056 C 364.000 66.794,362.650 65.239,361.000 63.600 C 359.350 61.961,358.000 60.399,358.000 60.130 C 358.000 59.485,339.719 41.200,339.074 41.200 C 338.800 41.200,337.417 40.030,336.000 38.600 C 334.583 37.170,333.205 36.000,332.938 36.000 C 332.672 36.000,331.529 35.100,330.400 34.000 C 329.271 32.900,328.124 32.000,327.852 32.000 C 327.580 32.000,326.746 31.370,326.000 30.600 C 325.254 29.830,324.344 29.200,323.978 29.200 C 323.612 29.200,322.974 28.750,322.561 28.200 C 322.148 27.650,321.524 27.200,321.175 27.200 C 320.825 27.200,320.117 26.750,319.600 26.200 C 319.083 25.650,318.465 25.200,318.226 25.200 C 317.987 25.200,317.307 24.750,316.713 24.200 C 316.120 23.650,315.388 23.200,315.087 23.200 C 314.786 23.200,314.117 22.750,313.600 22.200 C 313.083 21.650,312.357 21.200,311.986 21.200 C 311.615 21.200,310.974 20.750,310.561 20.200 C 310.148 19.650,309.515 19.200,309.154 19.200 C 308.793 19.200,308.274 18.930,308.000 18.600 C 307.726 18.270,307.164 18.000,306.751 18.000 C 306.338 18.000,306.000 17.820,306.000 17.600 C 306.000 17.380,305.671 17.200,305.270 17.200 C 304.868 17.200,304.117 16.750,303.600 16.200 C 303.083 15.650,302.326 15.200,301.918 15.200 C 301.509 15.200,301.071 14.930,300.945 14.600 C 300.818 14.270,300.384 14.000,299.981 14.000 C 299.577 14.000,299.136 13.820,299.000 13.600 C 298.864 13.380,298.398 13.200,297.964 13.200 C 297.530 13.200,297.071 12.930,296.945 12.600 C 296.818 12.270,296.384 12.000,295.981 12.000 C 295.577 12.000,295.136 11.820,295.000 11.600 C 294.864 11.380,294.398 11.200,293.964 11.200 C 293.530 11.200,293.071 10.930,292.945 10.600 C 292.818 10.270,292.384 10.000,291.981 10.000 C 291.577 10.000,291.136 9.820,291.000 9.600 C 290.864 9.380,290.398 9.200,289.964 9.200 C 289.530 9.200,289.071 8.930,288.945 8.600 C 288.818 8.270,288.384 8.000,287.981 8.000 C 287.577 8.000,287.136 7.820,287.000 7.600 C 286.864 7.380,286.245 7.200,285.625 7.200 C 285.005 7.200,284.274 6.930,284.000 6.600 C 283.726 6.270,283.164 6.000,282.751 6.000 C 282.338 6.000,282.000 5.820,282.000 5.600 C 282.000 5.380,281.662 5.200,281.249 5.200 C 280.836 5.200,280.274 4.930,280.000 4.600 C 279.726 4.270,278.995 4.000,278.375 4.000 C 277.755 4.000,277.136 3.820,277.000 3.600 C 276.864 3.380,276.245 3.200,275.625 3.200 C 275.005 3.200,274.274 2.930,274.000 2.600 C 273.726 2.270,273.164 2.000,272.751 2.000 C 272.338 2.000,272.000 1.820,272.000 1.600 C 272.000 1.380,271.364 1.200,270.587 1.200 C 269.701 1.200,269.089 0.977,268.945 0.600 C 268.594 -0.313,131.406 -0.313,131.055 0.600 M124.230 4.352 C 124.110 4.545,123.639 4.801,123.183 4.920 C 122.503 5.098,122.439 5.035,122.826 4.569 C 123.332 3.959,124.593 3.764,124.230 4.352 M277.174 4.569 C 277.561 5.035,277.497 5.098,276.817 4.920 C 275.816 4.659,275.323 4.000,276.127 4.000 C 276.443 4.000,276.914 4.256,277.174 4.569 M106.230 12.352 C 106.110 12.545,105.639 12.801,105.183 12.920 C 104.503 13.098,104.439 13.035,104.826 12.569 C 105.332 11.959,106.593 11.764,106.230 12.352 M295.174 12.569 C 295.561 13.035,295.497 13.098,294.817 12.920 C 293.816 12.659,293.323 12.000,294.127 12.000 C 294.443 12.000,294.914 12.256,295.174 12.569 M216.600 18.189 C 222.097 19.329,229.151 21.903,235.800 25.195 C 239.320 26.937,243.605 28.932,245.322 29.628 C 249.169 31.187,252.169 33.421,255.734 37.381 C 259.824 41.924,260.477 42.174,267.963 42.062 C 279.339 41.891,283.197 43.565,289.482 51.397 C 290.910 53.176,293.686 55.902,295.726 57.528 C 306.585 66.181,311.041 73.048,314.347 86.229 C 315.226 89.733,317.027 95.703,318.350 99.496 C 324.598 117.408,326.161 132.563,322.861 143.224 C 322.191 145.389,321.391 149.380,321.017 152.424 C 318.705 171.252,314.122 191.987,309.175 206.007 C 304.131 220.300,300.883 224.791,295.200 225.325 C 289.946 225.819,289.625 223.812,292.968 211.354 C 299.957 185.312,297.840 170.178,284.346 149.720 C 282.286 146.596,279.790 142.736,278.800 141.142 C 277.810 139.548,274.750 135.883,272.000 132.997 C 265.653 126.339,262.945 122.539,259.200 115.041 C 254.692 106.015,253.975 105.827,247.000 111.837 C 239.376 118.406,236.610 120.102,230.075 122.211 C 227.243 123.125,224.159 124.527,221.171 126.258 C 209.615 132.953,198.727 136.800,191.336 136.800 C 188.331 136.800,187.095 136.057,186.048 133.622 C 184.555 130.153,182.767 129.751,176.293 131.428 C 174.297 131.945,169.656 132.554,160.707 133.474 C 157.891 133.764,157.371 133.395,157.091 130.909 C 156.705 127.486,155.285 127.118,145.886 128.010 C 134.638 129.076,124.400 136.002,124.400 142.544 C 124.400 144.390,125.260 144.452,130.294 142.963 C 134.058 141.851,150.570 140.537,155.800 140.935 C 174.398 142.348,179.992 145.977,176.785 154.548 C 174.348 161.061,167.984 162.990,154.048 161.440 C 141.714 160.068,131.537 160.651,123.803 163.174 C 121.821 163.820,119.120 164.562,117.800 164.822 C 113.597 165.649,112.964 166.399,109.155 175.047 C 105.232 183.954,105.172 184.183,104.794 191.588 C 104.567 196.024,104.112 199.845,103.410 203.200 C 102.834 205.950,102.027 210.790,101.616 213.955 C 100.302 224.072,98.387 223.823,92.734 212.800 C 87.860 203.297,85.198 193.858,79.759 166.800 C 78.986 162.950,77.927 157.820,77.406 155.400 C 75.399 146.065,75.066 142.220,74.125 117.501 C 73.661 105.300,75.930 95.710,82.381 82.600 C 84.330 78.640,87.287 72.610,88.952 69.200 C 103.707 38.988,137.774 22.000,183.607 22.000 C 191.297 22.000,193.279 21.650,197.502 19.544 C 202.603 17.001,208.766 16.563,216.600 18.189 M64.230 40.352 C 64.110 40.545,63.639 40.801,63.183 40.920 C 62.503 41.098,62.439 41.035,62.826 40.569 C 63.332 39.959,64.593 39.764,64.230 40.352 M337.174 40.569 C 337.561 41.035,337.497 41.098,336.817 40.920 C 335.816 40.659,335.323 40.000,336.127 40.000 C 336.443 40.000,336.914 40.256,337.174 40.569 M40.646 63.925 C 40.087 64.484,40.000 64.490,40.000 63.966 C 40.000 63.144,40.936 62.208,41.141 62.824 C 41.225 63.074,41.002 63.569,40.646 63.925 M360.000 63.898 C 360.000 64.386,359.888 64.405,359.400 64.000 C 359.070 63.726,358.800 63.232,358.800 62.902 C 358.800 62.414,358.912 62.395,359.400 62.800 C 359.730 63.074,360.000 63.568,360.000 63.898 M32.914 73.206 C 32.662 74.169,32.000 74.675,32.000 73.904 C 32.000 73.458,32.733 72.400,33.043 72.400 C 33.088 72.400,33.030 72.763,32.914 73.206 M368.000 73.873 C 368.000 74.677,367.341 74.184,367.080 73.183 C 366.902 72.503,366.965 72.439,367.431 72.826 C 367.744 73.086,368.000 73.557,368.000 73.873 M7.800 116.400 C 7.650 116.873,7.437 117.170,7.327 117.060 C 7.217 116.950,7.250 116.473,7.400 116.000 C 7.550 115.527,7.763 115.230,7.873 115.340 C 7.983 115.450,7.950 115.927,7.800 116.400 M392.788 116.800 C 392.788 117.333,392.745 117.333,392.400 116.800 C 392.187 116.470,392.012 115.930,392.012 115.600 C 392.012 115.067,392.055 115.067,392.400 115.600 C 392.613 115.930,392.788 116.470,392.788 116.800 M4.914 123.206 C 4.662 124.169,4.000 124.675,4.000 123.904 C 4.000 123.458,4.733 122.400,5.043 122.400 C 5.088 122.400,5.030 122.763,4.914 123.206 M396.000 123.873 C 396.000 124.677,395.341 124.184,395.080 123.183 C 394.902 122.503,394.965 122.439,395.431 122.826 C 395.744 123.086,396.000 123.557,396.000 123.873 M265.690 142.224 C 272.209 143.801,278.204 149.106,281.430 156.152 C 284.352 162.536,282.187 164.961,275.345 162.967 C 266.687 160.444,260.600 159.988,249.800 161.051 C 238.036 162.210,231.602 162.095,228.710 160.676 C 221.263 157.018,220.186 147.113,226.880 143.843 C 231.447 141.612,258.494 140.484,265.690 142.224 M258.545 176.996 C 263.778 178.104,265.963 180.186,264.816 182.971 C 263.831 185.362,263.200 188.199,263.200 190.233 C 263.200 194.027,260.530 195.661,253.039 196.451 C 240.879 197.734,234.917 193.822,235.712 185.081 C 236.225 179.435,248.890 174.950,258.545 176.996 M155.985 177.986 C 163.330 180.485,165.159 183.111,163.651 188.997 C 162.047 195.258,157.583 197.376,147.600 196.612 C 139.036 195.956,136.415 194.320,136.381 189.611 C 136.370 187.997,136.008 185.931,135.435 184.201 C 134.361 180.960,134.562 180.059,136.651 178.769 C 140.115 176.628,150.729 176.198,155.985 177.986 M4.920 276.817 C 5.098 277.497,5.035 277.561,4.569 277.174 C 4.256 276.914,4.000 276.443,4.000 276.127 C 4.000 275.323,4.659 275.816,4.920 276.817 M395.390 277.139 C 395.004 277.503,394.775 277.620,394.882 277.400 C 394.989 277.180,395.215 276.640,395.385 276.200 C 395.602 275.636,395.752 275.559,395.893 275.939 C 396.003 276.236,395.777 276.776,395.390 277.139 M227.669 277.862 C 231.142 281.006,220.123 290.175,210.893 291.821 C 197.450 294.218,184.316 291.021,177.516 283.698 C 172.673 278.482,174.834 276.984,185.392 278.239 C 194.121 279.276,207.930 279.206,215.600 278.086 C 222.679 277.052,226.691 276.977,227.669 277.862 M7.988 284.400 C 7.988 284.933,7.945 284.933,7.600 284.400 C 7.387 284.070,7.212 283.530,7.212 283.200 C 7.212 282.667,7.255 282.667,7.600 283.200 C 7.813 283.530,7.988 284.070,7.988 284.400 M392.600 284.000 C 392.450 284.473,392.237 284.770,392.127 284.660 C 392.017 284.550,392.050 284.073,392.200 283.600 C 392.350 283.127,392.563 282.830,392.673 282.940 C 392.783 283.050,392.750 283.527,392.600 284.000 M32.920 326.817 C 33.098 327.497,33.035 327.561,32.569 327.174 C 32.256 326.914,32.000 326.443,32.000 326.127 C 32.000 325.323,32.659 325.816,32.920 326.817 M367.390 327.139 C 367.004 327.503,366.775 327.620,366.882 327.400 C 366.989 327.180,367.215 326.640,367.385 326.200 C 367.602 325.636,367.752 325.559,367.893 325.939 C 368.003 326.236,367.777 326.776,367.390 327.139 M41.200 337.098 C 41.200 337.586,41.088 337.605,40.600 337.200 C 40.270 336.926,40.000 336.432,40.000 336.102 C 40.000 335.614,40.112 335.595,40.600 336.000 C 40.930 336.274,41.200 336.768,41.200 337.098 M359.446 337.125 C 358.887 337.684,358.800 337.690,358.800 337.166 C 358.800 336.344,359.736 335.408,359.941 336.024 C 360.025 336.274,359.802 336.769,359.446 337.125 M63.478 358.987 C 64.273 359.687,64.416 359.978,63.970 359.987 C 63.623 359.994,62.917 359.550,62.400 359.000 C 61.187 357.709,62.013 357.699,63.478 358.987 M337.600 359.000 C 336.612 360.051,335.530 360.342,335.700 359.511 C 335.815 358.949,337.129 358.097,337.970 358.039 C 338.350 358.013,338.227 358.332,337.600 359.000 M81.055 373.400 C 81.182 373.730,81.558 374.000,81.892 374.000 C 82.385 374.000,82.405 373.888,82.000 373.400 C 81.726 373.070,81.350 372.800,81.164 372.800 C 80.977 372.800,80.929 373.070,81.055 373.400 M318.000 373.400 C 317.595 373.888,317.615 374.000,318.108 374.000 C 318.442 374.000,318.818 373.730,318.945 373.400 C 319.071 373.070,319.023 372.800,318.836 372.800 C 318.650 372.800,318.274 373.070,318.000 373.400 M302.000 383.400 C 301.595 383.888,301.615 384.000,302.108 384.000 C 302.442 384.000,302.818 383.730,302.945 383.400 C 303.071 383.070,303.023 382.800,302.836 382.800 C 302.650 382.800,302.274 383.070,302.000 383.400 " stroke="none" fill="#efe1db" fill-rule="evenodd"></path></g></svg>